<?xml version="1.0" encoding="UTF-8" standalone="no"?>
<!-- Designed by Vexels.com - 2016 All Rights Reserved - https://vexels.com/terms-and-conditions/  -->

<svg
   xmlns:dc="http://purl.org/dc/elements/1.1/"
   xmlns:cc="http://creativecommons.org/ns#"
   xmlns:rdf="http://www.w3.org/1999/02/22-rdf-syntax-ns#"
   xmlns:svg="http://www.w3.org/2000/svg"
   xmlns="http://www.w3.org/2000/svg"
   xmlns:xlink="http://www.w3.org/1999/xlink"
   xmlns:sodipodi="http://sodipodi.sourceforge.net/DTD/sodipodi-0.dtd"
   xmlns:inkscape="http://www.inkscape.org/namespaces/inkscape"
   version="1.1"
   id="Capa_1"
   x="0px"
   y="0px"
   width="500"
   height="500"
   viewBox="0 0 500 500"
   enable-background="new 0 0 1200 1200"
   xml:space="preserve"
   sodipodi:docname="logo.svg"
   inkscape:version="0.92.4 (f8dce91, 2019-08-02)"
   inkscape:export-filename="/home/dgonzalez/Pictures/logo.png"
   inkscape:export-xdpi="96"
   inkscape:export-ydpi="96"><metadata
   id="metadata63"><rdf:RDF><cc:Work
       rdf:about=""><dc:format>image/svg+xml</dc:format><dc:type
         rdf:resource="http://purl.org/dc/dcmitype/StillImage" /><dc:title></dc:title></cc:Work></rdf:RDF></metadata><defs
   id="defs61"><linearGradient
     inkscape:collect="always"
     id="linearGradient4680"><stop
       style="stop-color:#616161;stop-opacity:1;"
       offset="0"
       id="stop4676" /><stop
       style="stop-color:#616161;stop-opacity:0;"
       offset="1"
       id="stop4678" /></linearGradient><linearGradient
     inkscape:collect="always"
     xlink:href="#linearGradient4680"
     id="linearGradient4682"
     x1="1311.5903"
     y1="876.30481"
     x2="2171.9277"
     y2="876.30481"
     gradientUnits="userSpaceOnUse" /></defs><sodipodi:namedview
   pagecolor="#ffffff"
   bordercolor="#666666"
   borderopacity="1"
   objecttolerance="10"
   gridtolerance="10"
   guidetolerance="10"
   inkscape:pageopacity="0"
   inkscape:pageshadow="2"
   inkscape:window-width="1299"
   inkscape:window-height="713"
   id="namedview59"
   showgrid="false"
   inkscape:snap-text-baseline="false"
   showguides="false"
   inkscape:zoom="0.94"
   inkscape:cx="413.82979"
   inkscape:cy="250"
   inkscape:window-x="0"
   inkscape:window-y="27"
   inkscape:window-maximized="1"
   inkscape:current-layer="g56"><inkscape:grid
     type="xygrid"
     id="grid4604" /></sodipodi:namedview>
<g
   id="g56"
   transform="matrix(0.5,0,0,0.5,188.11079,-587.40602)">
	<path
   d="m -29.991876,1901.3726 -0.022,0.013 0.022,0.013 v -0.025 m -89.510994,-326.6385 v 274.9805 -0.031 l 89.510994,-51.663 v -171.6565 l -0.049,0.035 -89.461994,-51.6655"
   id="path10"
   inkscape:connector-curvature="0"
   style="fill:#1a71ba;stroke-width:0.5"
   inkscape:export-xdpi="96"
   inkscape:export-ydpi="96" />
	<path
   d="m -119.50287,1849.7146 v 0.01 l 89.465494,51.673 0.0235,-0.012 -89.488994,-51.671 m 148.68999,-85.851 -59.178996,34.1575 v 103.351 l 59.178996,-34.158 v -103.3505 m 89.5125,-51.5575 v 103.243 l 89.471,-51.64 -0.046,-0.026 v 0.01 l -0.0305,0.02 -89.3945,-51.6075"
   id="path12"
   inkscape:connector-curvature="0"
   style="fill:#1a71ba;stroke-width:0.5"
   inkscape:export-xdpi="96"
   inkscape:export-ydpi="96" />
	<polyline
   points="302.704,771.606 123.682,874.933 123.682,874.993 302.66,978.334 302.704,978.309    302.704,771.606  "
   id="polyline14"
   style="fill:#141493"
   transform="matrix(0.5,0,0,0.5,-181.34387,1412.2181)"
   inkscape:export-xdpi="96"
   inkscape:export-ydpi="96" />
	<path
   d="m 356.82214,1574.7521 -89.5115,51.665 v 171.6495 l 0.044,-0.025 89.468,51.6655 v -274.9545 m -89.512,-51.711 v 0.023 l 0.0185,-0.013 -0.0185,-0.01"
   id="path16"
   inkscape:connector-curvature="0"
   style="fill:#df208c;stroke-width:0.5"
   inkscape:export-xdpi="96"
   inkscape:export-ydpi="96" />
	<path
   d="m 208.12512,1660.5781 -89.425,51.6175 v 0.045 l 89.425,51.6425 v -103.3055 m 0,-171.647 -89.511,51.6655 v 68.2955 l 89.511,-51.665 v -68.296 m -89.511,-51.713 v 0.025 l 0.0235,-0.013 -0.0235,-0.012"
   id="path18"
   inkscape:connector-curvature="0"
   style="fill:#fec338;stroke-width:0.5"
   inkscape:export-xdpi="96"
   inkscape:export-ydpi="96" />
	<polyline
   points="600.087,600.046 600.087,600.176 778.877,703.391 778.938,703.351 778.938,703.331    600.087,600.046  "
   id="polyline20"
   style="fill:#1a5829"
   transform="matrix(0.5,0,0,0.5,-181.34387,1412.2181)"
   inkscape:export-xdpi="96"
   inkscape:export-ydpi="96" />
	<path
   d="m 118.61412,1608.8921 -89.466,51.6405 0.039,0.023 v -0.013 l 0.0355,-0.02 89.3915,51.6125 v -103.2435 m 148.69652,-85.828 -59.18552,34.163 v 103.351 l 59.18552,-34.1605 v -103.3535 m 0.039,-0.023 -0.0205,0.01 89.493,51.67 v 0.031 -0.038 l -89.4725,-51.673"
   id="path22"
   inkscape:connector-curvature="0"
   style="fill:#df208c;stroke-width:0.5"
   inkscape:export-xdpi="96"
   inkscape:export-ydpi="96" />
	<polyline
   points="897.346,221.667 897.309,221.692 897.309,428.398 1076.332,325.068 1076.332,325.007    897.346,221.667  "
   id="polyline24"
   style="fill:#c2054d"
   transform="matrix(0.5,0,0,0.5,-181.34387,1412.2181)"
   inkscape:export-xdpi="96"
   inkscape:export-ydpi="96" />
	<polyline
   points="778.938,290.018 599.916,393.348 599.916,599.834 600.087,599.935 600.087,599.955    778.938,496.72 778.938,290.018  "
   id="polyline26"
   style="fill:#de1820"
   transform="matrix(0.5,0,0,0.5,-181.34387,1412.2181)"
   inkscape:export-xdpi="96"
   inkscape:export-ydpi="96" />
	<path
   d="m 118.69962,1815.5491 -89.5125,51.665 v 68.321 -0.03 l 89.5125,-51.663 v -68.293 m -89.5125,-154.9935 v 103.308 l 89.427,-51.613 v -0.053 l -89.427,-51.6425"
   id="path28"
   inkscape:connector-curvature="0"
   style="fill:#fec642;stroke-width:0.5"
   inkscape:export-xdpi="96"
   inkscape:export-ydpi="96" />
	<polyline
   points="599.916,600.065 421.062,703.291 421.062,909.992 600.087,806.662 600.087,600.176    599.916,600.075  "
   id="polyline30"
   style="fill:#21934f"
   transform="matrix(0.5,0,0,0.5,-181.34387,1412.2181)"
   inkscape:export-xdpi="96"
   inkscape:export-ydpi="96" />
	<polyline
   points="600.087,599.955 599.996,600.005 599.916,599.96 599.916,600.075 600.017,600.005    600.087,600.046 600.087,599.955  "
   id="polyline32"
   style="fill:#fc960e"
   transform="matrix(0.5,0,0,0.5,-181.34387,1412.2181)"
   inkscape:export-xdpi="96"
   inkscape:export-ydpi="96" />
	<polyline
   points="600.017,600.005 599.916,600.065 599.916,600.075 600.087,600.176 600.087,600.046    600.017,600.005  "
   id="polyline34"
   style="fill:#1a430a"
   transform="matrix(0.5,0,0,0.5,-181.34387,1412.2181)"
   inkscape:export-xdpi="96"
   inkscape:export-ydpi="96" />
	<polyline
   points="421.133,496.609 421.062,496.649 421.062,496.675 599.916,599.96 599.916,599.834    421.133,496.609  "
   id="polyline36"
   style="fill:#de1923"
   transform="matrix(0.5,0,0,0.5,-181.34387,1412.2181)"
   inkscape:export-xdpi="96"
   inkscape:export-ydpi="96" />
	<polyline
   points="599.916,599.834 599.916,599.96 599.996,600.005 600.087,599.955 600.087,599.935    599.916,599.834  "
   id="polyline38"
   style="fill:#dc1207"
   transform="matrix(0.5,0,0,0.5,-181.34387,1412.2181)"
   inkscape:export-xdpi="96"
   inkscape:export-ydpi="96" />
	<polyline
   points="600.087,1149.955 600.046,1149.976 600.087,1150 600.087,1149.955  "
   id="polyline40"
   style="fill:#fec642"
   transform="matrix(0.5,0,0,0.5,-181.34387,1412.2181)"
   inkscape:export-xdpi="96"
   inkscape:export-ydpi="96" />
	<polyline
   points="897.309,771.697 600.087,943.248 600.087,1149.955 1076.41,875.022 1076.332,874.978    1076.332,874.993 1076.26,875.032 897.309,771.717 897.309,771.697  "
   id="polyline42"
   style="fill:#fec642"
   transform="matrix(0.5,0,0,0.5,-181.34387,1412.2181)"
   inkscape:export-xdpi="96"
   inkscape:export-ydpi="96" />
	<polyline
   points="897.396,771.646 897.309,771.697 897.309,771.717 1076.26,875.032 1076.332,874.993    897.396,771.646  "
   id="polyline44"
   style="fill:#de1923"
   transform="matrix(0.5,0,0,0.5,-181.34387,1412.2181)"
   inkscape:export-xdpi="96"
   inkscape:export-ydpi="96" />
	<polyline
   points="421.062,1046.634 421.062,1046.654 600.006,1150 600.046,1149.976 421.062,1046.634  "
   id="polyline46"
   style="fill:#fec642"
   transform="matrix(0.5,0,0,0.5,-181.34387,1412.2181)"
   inkscape:export-xdpi="96"
   inkscape:export-ydpi="96" />
	<polyline
   points="600.087,943.248 421.062,1046.574 421.062,1046.634 600.046,1149.976 600.087,1149.955    600.087,943.248  "
   id="polyline48"
   style="fill:#fd9b19"
   transform="matrix(0.5,0,0,0.5,-181.34387,1412.2181)"
   inkscape:export-xdpi="96"
   inkscape:export-ydpi="96" />
	<path
   d="m 118.61412,1437.2431 -238.16299,137.466 0.0455,0.025 v -0.012 l 0.0305,-0.02 89.480494,51.6625 148.605496,-85.768 v -103.3535 m 0.046,-0.025 -0.022,0.012 89.4875,51.6705 v 0.03 -0.041 l -89.4655,-51.6725"
   id="path50"
   inkscape:connector-curvature="0"
   style="fill:#fec338;stroke-width:0.5"
   inkscape:export-xdpi="96"
   inkscape:export-ydpi="96" />
	<polyline
   points="123.743,324.968 123.682,325.007 123.682,325.032 302.606,428.363 302.704,428.309    302.704,428.293 123.743,324.968  "
   id="polyline52"
   style="fill:#1a5829"
   transform="matrix(0.5,0,0,0.5,-181.34387,1412.2181)"
   inkscape:export-xdpi="96"
   inkscape:export-ydpi="96" />
	<polyline
   points="599.962,50.025 599.916,50.05 599.916,256.757 778.938,153.426 778.938,153.366 599.962,50.025     "
   id="polyline54"
   style="fill:#fd950d"
   transform="matrix(0.5,0,0,0.5,-181.34387,1412.2181)"
   inkscape:export-xdpi="96"
   inkscape:export-ydpi="96" />
<circle
   id="path4581"
   cx="124.53029"
   cy="1340.2256"
   style="fill:#21934f;fill-opacity:0.78735633;stroke-width:1"
   r="51.8797"
   inkscape:export-xdpi="96"
   inkscape:export-ydpi="96" /><circle
   id="path4581-3"
   cx="-207.04863"
   cy="1705.639"
   style="fill:#fec338;fill-opacity:1;stroke-width:1"
   r="51.8797"
   inkscape:export-xdpi="96"
   inkscape:export-ydpi="96" /><circle
   id="path4581-6"
   cx="304.98141"
   cy="1978.5715"
   style="fill:#1a71ba;fill-opacity:1;stroke-width:1"
   r="51.8797"
   inkscape:export-xdpi="96"
   inkscape:export-ydpi="96" />
</g>
</svg>